<mxfile host="Electron" modified="2025-04-07T14:57:21.293Z" agent="Mozilla/5.0 (Windows NT 10.0; Win64; x64) AppleWebKit/537.36 (KHTML, like Gecko) draw.io/23.1.5 Chrome/120.0.6099.109 Electron/28.1.0 Safari/537.36" etag="I1xGJcgvLBHT88YCkIq_" version="23.1.5" type="device">
  <diagram name="PÃ¡gina-1" id="a2r9MVofKQPA-4txXq8V">
    <mxGraphModel dx="2575" dy="1286" grid="1" gridSize="10" guides="1" tooltips="1" connect="1" arrows="1" fold="1" page="1" pageScale="1" pageWidth="827" pageHeight="1169" math="0" shadow="0">
      <root>
        <mxCell id="0" />
        <mxCell id="1" parent="0" />
        <mxCell id="dFz9RoGbKtm6EdI5tDro-129" value="" style="rounded=0;whiteSpace=wrap;html=1;" vertex="1" parent="1">
          <mxGeometry x="740" y="210" width="540" height="2330" as="geometry" />
        </mxCell>
        <mxCell id="3Z-GYWipKC4Cqeu5PKFF-6" value="" style="rounded=0;whiteSpace=wrap;html=1;" parent="1" vertex="1">
          <mxGeometry x="60" y="80" width="540" height="1760" as="geometry" />
        </mxCell>
        <mxCell id="3Z-GYWipKC4Cqeu5PKFF-2" value="" style="rounded=0;whiteSpace=wrap;html=1;" parent="1" vertex="1">
          <mxGeometry x="60" y="80" width="540" height="70" as="geometry" />
        </mxCell>
        <mxCell id="3Z-GYWipKC4Cqeu5PKFF-5" value="HEADER" style="text;html=1;align=center;verticalAlign=middle;whiteSpace=wrap;rounded=0;" parent="1" vertex="1">
          <mxGeometry x="530" y="110" width="60" height="30" as="geometry" />
        </mxCell>
        <mxCell id="3Z-GYWipKC4Cqeu5PKFF-8" value="" style="rounded=0;whiteSpace=wrap;html=1;" parent="1" vertex="1">
          <mxGeometry x="60" y="1780" width="540" height="60" as="geometry" />
        </mxCell>
        <mxCell id="3Z-GYWipKC4Cqeu5PKFF-4" value="" style="rounded=0;whiteSpace=wrap;html=1;" parent="1" vertex="1">
          <mxGeometry x="60" y="80" width="130" height="1760" as="geometry" />
        </mxCell>
        <mxCell id="3Z-GYWipKC4Cqeu5PKFF-7" value="SIDEBAR" style="text;html=1;align=center;verticalAlign=middle;whiteSpace=wrap;rounded=0;" parent="1" vertex="1">
          <mxGeometry x="90" y="610" width="60" height="30" as="geometry" />
        </mxCell>
        <mxCell id="3Z-GYWipKC4Cqeu5PKFF-9" value="FOOTER" style="text;html=1;align=center;verticalAlign=middle;whiteSpace=wrap;rounded=0;" parent="1" vertex="1">
          <mxGeometry x="330" y="1820" width="60" height="30" as="geometry" />
        </mxCell>
        <mxCell id="3Z-GYWipKC4Cqeu5PKFF-10" value="LOGO" style="ellipse;whiteSpace=wrap;html=1;aspect=fixed;" parent="1" vertex="1">
          <mxGeometry x="340" y="85" width="60" height="60" as="geometry" />
        </mxCell>
        <mxCell id="3Z-GYWipKC4Cqeu5PKFF-11" value="LOGO" style="ellipse;whiteSpace=wrap;html=1;aspect=fixed;" parent="1" vertex="1">
          <mxGeometry x="85" y="100" width="80" height="80" as="geometry" />
        </mxCell>
        <mxCell id="3Z-GYWipKC4Cqeu5PKFF-14" value="" style="rounded=0;whiteSpace=wrap;html=1;" parent="1" vertex="1">
          <mxGeometry x="200" y="160" width="390" height="100" as="geometry" />
        </mxCell>
        <mxCell id="3Z-GYWipKC4Cqeu5PKFF-15" value="&lt;h1&gt;Heading&lt;/h1&gt;&lt;p&gt;Lorem ipsum dolor sit amet, consectetur adipisicing elit, sed do eiusmod tempor incididunt ut labore et dolore magna aliqua.&lt;/p&gt;" style="text;html=1;spacing=5;spacingTop=-20;whiteSpace=wrap;overflow=hidden;rounded=0;" parent="1" vertex="1">
          <mxGeometry x="200" y="160" width="390" height="100" as="geometry" />
        </mxCell>
        <mxCell id="3Z-GYWipKC4Cqeu5PKFF-16" value="" style="endArrow=none;html=1;rounded=0;entryX=1;entryY=0.4;entryDx=0;entryDy=0;entryPerimeter=0;" parent="1" target="3Z-GYWipKC4Cqeu5PKFF-15" edge="1">
          <mxGeometry width="50" height="50" relative="1" as="geometry">
            <mxPoint x="200" y="200" as="sourcePoint" />
            <mxPoint x="270.1399999999999" y="200.27999999999997" as="targetPoint" />
          </mxGeometry>
        </mxCell>
        <mxCell id="3Z-GYWipKC4Cqeu5PKFF-17" value="LOGO" style="ellipse;whiteSpace=wrap;html=1;aspect=fixed;" parent="1" vertex="1">
          <mxGeometry x="540" y="1780" width="60" height="60" as="geometry" />
        </mxCell>
        <mxCell id="3Z-GYWipKC4Cqeu5PKFF-19" value="" style="ellipse;whiteSpace=wrap;html=1;aspect=fixed;" parent="1" vertex="1">
          <mxGeometry x="310" y="1780" width="30" height="30" as="geometry" />
        </mxCell>
        <mxCell id="3Z-GYWipKC4Cqeu5PKFF-20" value="" style="ellipse;whiteSpace=wrap;html=1;aspect=fixed;" parent="1" vertex="1">
          <mxGeometry x="350" y="1780" width="30" height="30" as="geometry" />
        </mxCell>
        <mxCell id="3Z-GYWipKC4Cqeu5PKFF-21" value="" style="ellipse;whiteSpace=wrap;html=1;aspect=fixed;" parent="1" vertex="1">
          <mxGeometry x="390" y="1780" width="30" height="30" as="geometry" />
        </mxCell>
        <mxCell id="3Z-GYWipKC4Cqeu5PKFF-22" value="" style="ellipse;whiteSpace=wrap;html=1;aspect=fixed;" parent="1" vertex="1">
          <mxGeometry x="430" y="1780" width="30" height="30" as="geometry" />
        </mxCell>
        <mxCell id="3Z-GYWipKC4Cqeu5PKFF-23" value="" style="ellipse;whiteSpace=wrap;html=1;aspect=fixed;" parent="1" vertex="1">
          <mxGeometry x="270" y="1780" width="30" height="30" as="geometry" />
        </mxCell>
        <mxCell id="3Z-GYWipKC4Cqeu5PKFF-26" value="" style="rounded=0;whiteSpace=wrap;html=1;" parent="1" vertex="1">
          <mxGeometry x="200" y="270" width="390" height="170" as="geometry" />
        </mxCell>
        <mxCell id="3Z-GYWipKC4Cqeu5PKFF-27" value="&lt;h1&gt;Heading&lt;/h1&gt;&lt;p&gt;Lorem ipsum dolor sit amet, consectetur adipisicing elit, sed do eiusmod tempor incididunt ut labore et dolore magna aliqua.&lt;/p&gt;" style="text;html=1;spacing=5;spacingTop=-20;whiteSpace=wrap;overflow=hidden;rounded=0;" parent="1" vertex="1">
          <mxGeometry x="200" y="270" width="390" height="90" as="geometry" />
        </mxCell>
        <mxCell id="3Z-GYWipKC4Cqeu5PKFF-28" value="IMAGEN" style="rounded=0;whiteSpace=wrap;html=1;" parent="1" vertex="1">
          <mxGeometry x="300" y="360" width="160" height="70" as="geometry" />
        </mxCell>
        <mxCell id="3Z-GYWipKC4Cqeu5PKFF-30" value="" style="endArrow=none;html=1;rounded=0;entryX=1;entryY=0.4;entryDx=0;entryDy=0;entryPerimeter=0;" parent="1" edge="1">
          <mxGeometry width="50" height="50" relative="1" as="geometry">
            <mxPoint x="200" y="310" as="sourcePoint" />
            <mxPoint x="590" y="310" as="targetPoint" />
          </mxGeometry>
        </mxCell>
        <mxCell id="3Z-GYWipKC4Cqeu5PKFF-31" value="BOTON" style="text;html=1;align=center;verticalAlign=middle;whiteSpace=wrap;rounded=0;" parent="1" vertex="1">
          <mxGeometry x="85" y="220" width="60" height="30" as="geometry" />
        </mxCell>
        <mxCell id="3Z-GYWipKC4Cqeu5PKFF-32" value="BOTON" style="text;html=1;align=center;verticalAlign=middle;whiteSpace=wrap;rounded=0;" parent="1" vertex="1">
          <mxGeometry x="85" y="250" width="60" height="30" as="geometry" />
        </mxCell>
        <mxCell id="3Z-GYWipKC4Cqeu5PKFF-33" value="BOTON" style="text;html=1;align=center;verticalAlign=middle;whiteSpace=wrap;rounded=0;" parent="1" vertex="1">
          <mxGeometry x="85" y="280" width="60" height="30" as="geometry" />
        </mxCell>
        <mxCell id="3Z-GYWipKC4Cqeu5PKFF-34" value="BOTON" style="text;html=1;align=center;verticalAlign=middle;whiteSpace=wrap;rounded=0;" parent="1" vertex="1">
          <mxGeometry x="85" y="310" width="60" height="30" as="geometry" />
        </mxCell>
        <mxCell id="3Z-GYWipKC4Cqeu5PKFF-35" value="BOTON" style="text;html=1;align=center;verticalAlign=middle;whiteSpace=wrap;rounded=0;" parent="1" vertex="1">
          <mxGeometry x="85" y="340" width="60" height="30" as="geometry" />
        </mxCell>
        <mxCell id="3Z-GYWipKC4Cqeu5PKFF-36" value="BOTON&lt;br&gt;DARK MODE" style="ellipse;whiteSpace=wrap;html=1;" parent="1" vertex="1">
          <mxGeometry x="82.5" y="420" width="85" height="50" as="geometry" />
        </mxCell>
        <mxCell id="3Z-GYWipKC4Cqeu5PKFF-38" value="" style="rounded=0;whiteSpace=wrap;html=1;" parent="1" vertex="1">
          <mxGeometry x="200" y="450" width="390" height="490" as="geometry" />
        </mxCell>
        <mxCell id="3Z-GYWipKC4Cqeu5PKFF-39" value="&lt;h1&gt;Heading&lt;/h1&gt;&lt;p&gt;Lorem ipsum dolor sit amet, consectetur adipisicing elit, sed do eiusmod tempor incididunt ut labore et dolore magna aliqua.&lt;/p&gt;" style="text;html=1;spacing=5;spacingTop=-20;whiteSpace=wrap;overflow=hidden;rounded=0;" parent="1" vertex="1">
          <mxGeometry x="200" y="450" width="390" height="110" as="geometry" />
        </mxCell>
        <mxCell id="3Z-GYWipKC4Cqeu5PKFF-40" value="AUDIO" style="rounded=1;whiteSpace=wrap;html=1;" parent="1" vertex="1">
          <mxGeometry x="320" y="540" width="100" height="30" as="geometry" />
        </mxCell>
        <mxCell id="3Z-GYWipKC4Cqeu5PKFF-41" value="Lorem ipsum dolor sit amet, consectetur adipisicing elit, sed do eiusmod tempor incididunt ut labore et dolore magna aliqua." style="text;html=1;align=center;verticalAlign=middle;whiteSpace=wrap;rounded=0;" parent="1" vertex="1">
          <mxGeometry x="200" y="580" width="380" height="30" as="geometry" />
        </mxCell>
        <mxCell id="3Z-GYWipKC4Cqeu5PKFF-42" value="SLIDER IMAGENES" style="rounded=1;whiteSpace=wrap;html=1;" parent="1" vertex="1">
          <mxGeometry x="300" y="620" width="180" height="140" as="geometry" />
        </mxCell>
        <mxCell id="3Z-GYWipKC4Cqeu5PKFF-44" value="&lt;h1&gt;Heading&lt;/h1&gt;&lt;p&gt;Lorem ipsum dolor sit amet, consectetur adipisicing elit, sed do eiusmod tempor incididunt ut labore et dolore magna aliqua.&lt;/p&gt;" style="text;html=1;spacing=5;spacingTop=-20;whiteSpace=wrap;overflow=hidden;rounded=0;" parent="1" vertex="1">
          <mxGeometry x="200" y="760" width="390" height="90" as="geometry" />
        </mxCell>
        <mxCell id="3Z-GYWipKC4Cqeu5PKFF-45" value="" style="endArrow=none;html=1;rounded=0;entryX=1;entryY=0.4;entryDx=0;entryDy=0;entryPerimeter=0;" parent="1" edge="1">
          <mxGeometry width="50" height="50" relative="1" as="geometry">
            <mxPoint x="200" y="490" as="sourcePoint" />
            <mxPoint x="590" y="490" as="targetPoint" />
          </mxGeometry>
        </mxCell>
        <mxCell id="3Z-GYWipKC4Cqeu5PKFF-46" value="" style="endArrow=none;html=1;rounded=0;entryX=1;entryY=0.4;entryDx=0;entryDy=0;entryPerimeter=0;" parent="1" edge="1">
          <mxGeometry width="50" height="50" relative="1" as="geometry">
            <mxPoint x="200" y="794.5" as="sourcePoint" />
            <mxPoint x="590" y="794.5" as="targetPoint" />
          </mxGeometry>
        </mxCell>
        <mxCell id="3Z-GYWipKC4Cqeu5PKFF-47" value="VIDEO" style="rounded=1;whiteSpace=wrap;html=1;" parent="1" vertex="1">
          <mxGeometry x="300" y="850" width="170" height="80" as="geometry" />
        </mxCell>
        <mxCell id="3Z-GYWipKC4Cqeu5PKFF-48" value="" style="rounded=0;whiteSpace=wrap;html=1;" parent="1" vertex="1">
          <mxGeometry x="200" y="950" width="390" height="500" as="geometry" />
        </mxCell>
        <mxCell id="3Z-GYWipKC4Cqeu5PKFF-49" value="&lt;h1&gt;Heading&lt;/h1&gt;&lt;p&gt;Lorem ipsum dolor sit amet, consectetur adipisicing elit, sed do eiusmod tempor incididunt ut labore et dolore magna aliqua.&lt;/p&gt;" style="text;html=1;spacing=5;spacingTop=-20;whiteSpace=wrap;overflow=hidden;rounded=0;" parent="1" vertex="1">
          <mxGeometry x="200" y="950" width="390" height="90" as="geometry" />
        </mxCell>
        <mxCell id="3Z-GYWipKC4Cqeu5PKFF-50" value="" style="endArrow=none;html=1;rounded=0;entryX=1;entryY=0.4;entryDx=0;entryDy=0;entryPerimeter=0;" parent="1" edge="1">
          <mxGeometry width="50" height="50" relative="1" as="geometry">
            <mxPoint x="200" y="990" as="sourcePoint" />
            <mxPoint x="590" y="990" as="targetPoint" />
          </mxGeometry>
        </mxCell>
        <mxCell id="3Z-GYWipKC4Cqeu5PKFF-51" value="Text" style="text;html=1;align=center;verticalAlign=middle;whiteSpace=wrap;rounded=0;" parent="1" vertex="1">
          <mxGeometry x="200" y="1030" width="60" height="30" as="geometry" />
        </mxCell>
        <mxCell id="3Z-GYWipKC4Cqeu5PKFF-52" value="" style="rounded=1;whiteSpace=wrap;html=1;" parent="1" vertex="1">
          <mxGeometry x="220" y="1070" width="150" height="100" as="geometry" />
        </mxCell>
        <mxCell id="3Z-GYWipKC4Cqeu5PKFF-57" value="Text" style="text;html=1;align=center;verticalAlign=middle;whiteSpace=wrap;rounded=0;" parent="1" vertex="1">
          <mxGeometry x="200" y="1310" width="60" height="30" as="geometry" />
        </mxCell>
        <mxCell id="3Z-GYWipKC4Cqeu5PKFF-59" value="" style="rounded=0;whiteSpace=wrap;html=1;" parent="1" vertex="1">
          <mxGeometry x="200" y="1460" width="390" height="320" as="geometry" />
        </mxCell>
        <mxCell id="3Z-GYWipKC4Cqeu5PKFF-60" value="&lt;h1&gt;Heading&lt;/h1&gt;&lt;p&gt;Lorem ipsum dolor sit amet, consectetur adipisicing elit, sed do eiusmod tempor incididunt ut labore et dolore magna aliqua.&lt;/p&gt;" style="text;html=1;spacing=5;spacingTop=-20;whiteSpace=wrap;overflow=hidden;rounded=0;" parent="1" vertex="1">
          <mxGeometry x="200" y="1460" width="390" height="90" as="geometry" />
        </mxCell>
        <mxCell id="3Z-GYWipKC4Cqeu5PKFF-61" value="" style="endArrow=none;html=1;rounded=0;entryX=1;entryY=0.4;entryDx=0;entryDy=0;entryPerimeter=0;" parent="1" edge="1">
          <mxGeometry width="50" height="50" relative="1" as="geometry">
            <mxPoint x="200" y="1500" as="sourcePoint" />
            <mxPoint x="590" y="1500" as="targetPoint" />
          </mxGeometry>
        </mxCell>
        <mxCell id="3Z-GYWipKC4Cqeu5PKFF-62" value="" style="rounded=1;whiteSpace=wrap;html=1;" parent="1" vertex="1">
          <mxGeometry x="220" y="1550" width="340" height="210" as="geometry" />
        </mxCell>
        <mxCell id="3Z-GYWipKC4Cqeu5PKFF-63" value="" style="rounded=0;whiteSpace=wrap;html=1;" parent="1" vertex="1">
          <mxGeometry x="230" y="1570" width="320" height="20" as="geometry" />
        </mxCell>
        <mxCell id="3Z-GYWipKC4Cqeu5PKFF-64" value="" style="rounded=0;whiteSpace=wrap;html=1;" parent="1" vertex="1">
          <mxGeometry x="230" y="1610" width="320" height="20" as="geometry" />
        </mxCell>
        <mxCell id="3Z-GYWipKC4Cqeu5PKFF-65" value="" style="rounded=0;whiteSpace=wrap;html=1;" parent="1" vertex="1">
          <mxGeometry x="230" y="1650" width="320" height="30" as="geometry" />
        </mxCell>
        <mxCell id="3Z-GYWipKC4Cqeu5PKFF-66" value="" style="rounded=0;whiteSpace=wrap;html=1;" parent="1" vertex="1">
          <mxGeometry x="230" y="1700" width="320" height="20" as="geometry" />
        </mxCell>
        <mxCell id="3Z-GYWipKC4Cqeu5PKFF-68" value="BOTON" style="rounded=1;whiteSpace=wrap;html=1;" parent="1" vertex="1">
          <mxGeometry x="240" y="1734" width="290" height="20" as="geometry" />
        </mxCell>
        <mxCell id="3Z-GYWipKC4Cqeu5PKFF-70" value="Text" style="text;html=1;align=center;verticalAlign=middle;whiteSpace=wrap;rounded=0;" parent="1" vertex="1">
          <mxGeometry x="220" y="1550" width="60" height="30" as="geometry" />
        </mxCell>
        <mxCell id="3Z-GYWipKC4Cqeu5PKFF-72" value="Text" style="text;html=1;align=center;verticalAlign=middle;whiteSpace=wrap;rounded=0;" parent="1" vertex="1">
          <mxGeometry x="220" y="1590" width="60" height="30" as="geometry" />
        </mxCell>
        <mxCell id="3Z-GYWipKC4Cqeu5PKFF-73" value="Text" style="text;html=1;align=center;verticalAlign=middle;whiteSpace=wrap;rounded=0;" parent="1" vertex="1">
          <mxGeometry x="220" y="1630" width="60" height="30" as="geometry" />
        </mxCell>
        <mxCell id="3Z-GYWipKC4Cqeu5PKFF-74" value="Text" style="text;html=1;align=center;verticalAlign=middle;whiteSpace=wrap;rounded=0;" parent="1" vertex="1">
          <mxGeometry x="220" y="1680" width="60" height="30" as="geometry" />
        </mxCell>
        <mxCell id="3Z-GYWipKC4Cqeu5PKFF-76" value="" style="triangle;whiteSpace=wrap;html=1;rotation=90;" parent="1" vertex="1">
          <mxGeometry x="530" y="1702.5" width="10" height="15" as="geometry" />
        </mxCell>
        <mxCell id="3Z-GYWipKC4Cqeu5PKFF-78" value="" style="rounded=0;whiteSpace=wrap;html=1;" parent="1" vertex="1">
          <mxGeometry x="232.5" y="1080" width="125" height="60" as="geometry" />
        </mxCell>
        <mxCell id="3Z-GYWipKC4Cqeu5PKFF-82" value="" style="rounded=0;whiteSpace=wrap;html=1;" parent="1" vertex="1">
          <mxGeometry x="232.5" y="1140" width="125" height="10" as="geometry" />
        </mxCell>
        <mxCell id="3Z-GYWipKC4Cqeu5PKFF-86" value="" style="rounded=1;whiteSpace=wrap;html=1;" parent="1" vertex="1">
          <mxGeometry x="220" y="1070" width="150" height="100" as="geometry" />
        </mxCell>
        <mxCell id="3Z-GYWipKC4Cqeu5PKFF-87" value="IMAGEN" style="rounded=0;whiteSpace=wrap;html=1;" parent="1" vertex="1">
          <mxGeometry x="232.5" y="1080" width="125" height="60" as="geometry" />
        </mxCell>
        <mxCell id="3Z-GYWipKC4Cqeu5PKFF-88" value="FIGCAPTION" style="rounded=0;whiteSpace=wrap;html=1;" parent="1" vertex="1">
          <mxGeometry x="232.5" y="1140" width="125" height="10" as="geometry" />
        </mxCell>
        <mxCell id="3Z-GYWipKC4Cqeu5PKFF-89" value="" style="rounded=1;whiteSpace=wrap;html=1;" parent="1" vertex="1">
          <mxGeometry x="400" y="1070" width="150" height="100" as="geometry" />
        </mxCell>
        <mxCell id="3Z-GYWipKC4Cqeu5PKFF-90" value="IMAGEN" style="rounded=0;whiteSpace=wrap;html=1;" parent="1" vertex="1">
          <mxGeometry x="412.5" y="1080" width="125" height="60" as="geometry" />
        </mxCell>
        <mxCell id="3Z-GYWipKC4Cqeu5PKFF-91" value="FIGCAPTION" style="rounded=0;whiteSpace=wrap;html=1;" parent="1" vertex="1">
          <mxGeometry x="412.5" y="1140" width="125" height="10" as="geometry" />
        </mxCell>
        <mxCell id="3Z-GYWipKC4Cqeu5PKFF-92" value="" style="rounded=1;whiteSpace=wrap;html=1;" parent="1" vertex="1">
          <mxGeometry x="220" y="1180" width="150" height="100" as="geometry" />
        </mxCell>
        <mxCell id="3Z-GYWipKC4Cqeu5PKFF-93" value="IMAGEN" style="rounded=0;whiteSpace=wrap;html=1;" parent="1" vertex="1">
          <mxGeometry x="232.5" y="1190" width="125" height="60" as="geometry" />
        </mxCell>
        <mxCell id="3Z-GYWipKC4Cqeu5PKFF-94" value="FIGCAPTION" style="rounded=0;whiteSpace=wrap;html=1;" parent="1" vertex="1">
          <mxGeometry x="232.5" y="1250" width="125" height="10" as="geometry" />
        </mxCell>
        <mxCell id="3Z-GYWipKC4Cqeu5PKFF-95" value="" style="rounded=1;whiteSpace=wrap;html=1;" parent="1" vertex="1">
          <mxGeometry x="400" y="1180" width="150" height="100" as="geometry" />
        </mxCell>
        <mxCell id="3Z-GYWipKC4Cqeu5PKFF-96" value="IMAGEN" style="rounded=0;whiteSpace=wrap;html=1;" parent="1" vertex="1">
          <mxGeometry x="412.5" y="1190" width="125" height="60" as="geometry" />
        </mxCell>
        <mxCell id="3Z-GYWipKC4Cqeu5PKFF-97" value="FIGCAPTION" style="rounded=0;whiteSpace=wrap;html=1;" parent="1" vertex="1">
          <mxGeometry x="412.5" y="1250" width="125" height="10" as="geometry" />
        </mxCell>
        <mxCell id="3Z-GYWipKC4Cqeu5PKFF-98" value="Text" style="text;html=1;align=center;verticalAlign=middle;whiteSpace=wrap;rounded=0;" parent="1" vertex="1">
          <mxGeometry x="260" y="1150" width="55" height="20" as="geometry" />
        </mxCell>
        <mxCell id="3Z-GYWipKC4Cqeu5PKFF-99" value="Text" style="text;html=1;align=center;verticalAlign=middle;whiteSpace=wrap;rounded=0;" parent="1" vertex="1">
          <mxGeometry x="447.5" y="1150" width="55" height="20" as="geometry" />
        </mxCell>
        <mxCell id="3Z-GYWipKC4Cqeu5PKFF-100" value="Text" style="text;html=1;align=center;verticalAlign=middle;whiteSpace=wrap;rounded=0;" parent="1" vertex="1">
          <mxGeometry x="265" y="1260" width="55" height="20" as="geometry" />
        </mxCell>
        <mxCell id="3Z-GYWipKC4Cqeu5PKFF-101" value="Text" style="text;html=1;align=center;verticalAlign=middle;whiteSpace=wrap;rounded=0;" parent="1" vertex="1">
          <mxGeometry x="447.5" y="1260" width="55" height="20" as="geometry" />
        </mxCell>
        <mxCell id="3Z-GYWipKC4Cqeu5PKFF-102" value="" style="rounded=1;whiteSpace=wrap;html=1;" parent="1" vertex="1">
          <mxGeometry x="305" y="1330" width="150" height="100" as="geometry" />
        </mxCell>
        <mxCell id="3Z-GYWipKC4Cqeu5PKFF-103" value="IMAGEN" style="rounded=0;whiteSpace=wrap;html=1;" parent="1" vertex="1">
          <mxGeometry x="317.5" y="1340" width="125" height="60" as="geometry" />
        </mxCell>
        <mxCell id="3Z-GYWipKC4Cqeu5PKFF-104" value="FIGCAPTION" style="rounded=0;whiteSpace=wrap;html=1;" parent="1" vertex="1">
          <mxGeometry x="317.5" y="1400" width="125" height="10" as="geometry" />
        </mxCell>
        <mxCell id="3Z-GYWipKC4Cqeu5PKFF-105" value="Text" style="text;html=1;align=center;verticalAlign=middle;whiteSpace=wrap;rounded=0;" parent="1" vertex="1">
          <mxGeometry x="352.5" y="1410" width="55" height="20" as="geometry" />
        </mxCell>
        <mxCell id="dFz9RoGbKtm6EdI5tDro-10" value="" style="verticalLabelPosition=bottom;verticalAlign=top;html=1;shadow=0;dashed=0;strokeWidth=1;shape=mxgraph.android.phone2;strokeColor=#c0c0c0;" vertex="1" parent="1">
          <mxGeometry x="720" y="85" width="580" height="2695" as="geometry" />
        </mxCell>
        <mxCell id="dFz9RoGbKtm6EdI5tDro-13" value="" style="rounded=0;whiteSpace=wrap;html=1;" vertex="1" parent="1">
          <mxGeometry x="740" y="210" width="540" height="70" as="geometry" />
        </mxCell>
        <mxCell id="dFz9RoGbKtm6EdI5tDro-14" value="HEADER" style="text;html=1;align=center;verticalAlign=middle;whiteSpace=wrap;rounded=0;" vertex="1" parent="1">
          <mxGeometry x="1210" y="240" width="60" height="30" as="geometry" />
        </mxCell>
        <mxCell id="dFz9RoGbKtm6EdI5tDro-15" value="LOGO" style="ellipse;whiteSpace=wrap;html=1;aspect=fixed;" vertex="1" parent="1">
          <mxGeometry x="980" y="215" width="60" height="60" as="geometry" />
        </mxCell>
        <mxCell id="dFz9RoGbKtm6EdI5tDro-9" value="" style="strokeWidth=1;html=1;shadow=0;dashed=0;shape=mxgraph.android.action_bar;fillColor=#1A1A1A;strokeColor=#c0c0c0;strokeWidth=2;fontColor=#FFFFFF;whiteSpace=wrap;rotation=-180;" vertex="1" parent="1">
          <mxGeometry x="740" y="280" width="540" height="70" as="geometry" />
        </mxCell>
        <mxCell id="dFz9RoGbKtm6EdI5tDro-18" value="" style="rounded=0;whiteSpace=wrap;html=1;" vertex="1" parent="1">
          <mxGeometry x="870" y="360" width="390" height="170" as="geometry" />
        </mxCell>
        <mxCell id="dFz9RoGbKtm6EdI5tDro-17" value="&lt;h1&gt;Heading&lt;/h1&gt;&lt;p&gt;Lorem ipsum dolor sit amet, consectetur adipisicing elit, sed do eiusmod tempor incididunt ut labore et dolore magna aliqua.&lt;/p&gt;" style="text;html=1;spacing=5;spacingTop=-20;whiteSpace=wrap;overflow=hidden;rounded=0;" vertex="1" parent="1">
          <mxGeometry x="870" y="360" width="390" height="100" as="geometry" />
        </mxCell>
        <mxCell id="dFz9RoGbKtm6EdI5tDro-20" value="" style="rounded=0;whiteSpace=wrap;html=1;" vertex="1" parent="1">
          <mxGeometry x="870" y="540" width="390" height="180" as="geometry" />
        </mxCell>
        <mxCell id="dFz9RoGbKtm6EdI5tDro-21" value="&lt;h1&gt;Heading&lt;/h1&gt;&lt;p&gt;Lorem ipsum dolor sit amet, consectetur adipisicing elit, sed do eiusmod tempor incididunt ut labore et dolore magna aliqua.&lt;/p&gt;" style="text;html=1;spacing=5;spacingTop=-20;whiteSpace=wrap;overflow=hidden;rounded=0;" vertex="1" parent="1">
          <mxGeometry x="870" y="540" width="390" height="100" as="geometry" />
        </mxCell>
        <mxCell id="dFz9RoGbKtm6EdI5tDro-19" value="IMAGEN" style="rounded=0;whiteSpace=wrap;html=1;" vertex="1" parent="1">
          <mxGeometry x="985" y="640" width="160" height="70" as="geometry" />
        </mxCell>
        <mxCell id="dFz9RoGbKtm6EdI5tDro-22" value="" style="rounded=0;whiteSpace=wrap;html=1;" vertex="1" parent="1">
          <mxGeometry x="870" y="727.5" width="390" height="322.5" as="geometry" />
        </mxCell>
        <mxCell id="dFz9RoGbKtm6EdI5tDro-23" value="&lt;h1&gt;Heading&lt;/h1&gt;&lt;p&gt;Lorem ipsum dolor sit amet, consectetur adipisicing elit, sed do eiusmod tempor incididunt ut labore et dolore magna aliqua.&lt;/p&gt;" style="text;html=1;spacing=5;spacingTop=-20;whiteSpace=wrap;overflow=hidden;rounded=0;" vertex="1" parent="1">
          <mxGeometry x="870" y="727.5" width="390" height="100" as="geometry" />
        </mxCell>
        <mxCell id="dFz9RoGbKtm6EdI5tDro-24" value="" style="rounded=0;whiteSpace=wrap;html=1;" vertex="1" parent="1">
          <mxGeometry x="740" y="390" width="120" height="2130" as="geometry" />
        </mxCell>
        <mxCell id="dFz9RoGbKtm6EdI5tDro-25" value="SIDEBAR" style="text;html=1;align=center;verticalAlign=middle;whiteSpace=wrap;rounded=0;" vertex="1" parent="1">
          <mxGeometry x="765" y="774" width="60" height="30" as="geometry" />
        </mxCell>
        <mxCell id="dFz9RoGbKtm6EdI5tDro-26" value="BOTON" style="text;html=1;align=center;verticalAlign=middle;whiteSpace=wrap;rounded=0;" vertex="1" parent="1">
          <mxGeometry x="760" y="414" width="60" height="30" as="geometry" />
        </mxCell>
        <mxCell id="dFz9RoGbKtm6EdI5tDro-27" value="BOTON" style="text;html=1;align=center;verticalAlign=middle;whiteSpace=wrap;rounded=0;" vertex="1" parent="1">
          <mxGeometry x="760" y="444" width="60" height="30" as="geometry" />
        </mxCell>
        <mxCell id="dFz9RoGbKtm6EdI5tDro-28" value="BOTON" style="text;html=1;align=center;verticalAlign=middle;whiteSpace=wrap;rounded=0;" vertex="1" parent="1">
          <mxGeometry x="760" y="474" width="60" height="30" as="geometry" />
        </mxCell>
        <mxCell id="dFz9RoGbKtm6EdI5tDro-29" value="BOTON" style="text;html=1;align=center;verticalAlign=middle;whiteSpace=wrap;rounded=0;" vertex="1" parent="1">
          <mxGeometry x="760" y="504" width="60" height="30" as="geometry" />
        </mxCell>
        <mxCell id="dFz9RoGbKtm6EdI5tDro-30" value="BOTON" style="text;html=1;align=center;verticalAlign=middle;whiteSpace=wrap;rounded=0;" vertex="1" parent="1">
          <mxGeometry x="760" y="534" width="60" height="30" as="geometry" />
        </mxCell>
        <mxCell id="dFz9RoGbKtm6EdI5tDro-31" value="BOTON&lt;br&gt;DARK MODE" style="ellipse;whiteSpace=wrap;html=1;" vertex="1" parent="1">
          <mxGeometry x="757.5" y="614" width="85" height="50" as="geometry" />
        </mxCell>
        <mxCell id="dFz9RoGbKtm6EdI5tDro-32" value="" style="triangle;whiteSpace=wrap;html=1;rotation=90;" vertex="1" parent="1">
          <mxGeometry x="775" y="350" width="30" height="35" as="geometry" />
        </mxCell>
        <mxCell id="dFz9RoGbKtm6EdI5tDro-33" value="AUDIO" style="rounded=1;whiteSpace=wrap;html=1;" vertex="1" parent="1">
          <mxGeometry x="980" y="820" width="100" height="30" as="geometry" />
        </mxCell>
        <mxCell id="dFz9RoGbKtm6EdI5tDro-34" value="Lorem ipsum dolor sit amet, consectetur adipisicing elit, sed do eiusmod tempor incididunt ut labore et dolore magna aliqua." style="text;html=1;align=center;verticalAlign=middle;whiteSpace=wrap;rounded=0;" vertex="1" parent="1">
          <mxGeometry x="870" y="860" width="380" height="30" as="geometry" />
        </mxCell>
        <mxCell id="dFz9RoGbKtm6EdI5tDro-37" value="SLIDER IMAGENES" style="rounded=1;whiteSpace=wrap;html=1;" vertex="1" parent="1">
          <mxGeometry x="960" y="900" width="180" height="140" as="geometry" />
        </mxCell>
        <mxCell id="dFz9RoGbKtm6EdI5tDro-82" value="" style="group" vertex="1" connectable="0" parent="1">
          <mxGeometry x="740" y="2480" width="535" height="70" as="geometry" />
        </mxCell>
        <mxCell id="dFz9RoGbKtm6EdI5tDro-74" value="" style="rounded=0;whiteSpace=wrap;html=1;" vertex="1" parent="dFz9RoGbKtm6EdI5tDro-82">
          <mxGeometry width="535.0000000000001" height="60" as="geometry" />
        </mxCell>
        <mxCell id="dFz9RoGbKtm6EdI5tDro-75" value="FOOTER" style="text;html=1;align=center;verticalAlign=middle;whiteSpace=wrap;rounded=0;" vertex="1" parent="dFz9RoGbKtm6EdI5tDro-82">
          <mxGeometry x="267.50000000000006" y="40" width="59.44444444444446" height="30" as="geometry" />
        </mxCell>
        <mxCell id="dFz9RoGbKtm6EdI5tDro-76" value="LOGO" style="ellipse;whiteSpace=wrap;html=1;aspect=fixed;" vertex="1" parent="dFz9RoGbKtm6EdI5tDro-82">
          <mxGeometry x="475.55555555555566" width="58.88888888888889" height="58.88888888888889" as="geometry" />
        </mxCell>
        <mxCell id="dFz9RoGbKtm6EdI5tDro-77" value="" style="ellipse;whiteSpace=wrap;html=1;aspect=fixed;" vertex="1" parent="dFz9RoGbKtm6EdI5tDro-82">
          <mxGeometry x="247.68518518518522" width="29.444444444444446" height="29.444444444444446" as="geometry" />
        </mxCell>
        <mxCell id="dFz9RoGbKtm6EdI5tDro-78" value="" style="ellipse;whiteSpace=wrap;html=1;aspect=fixed;" vertex="1" parent="dFz9RoGbKtm6EdI5tDro-82">
          <mxGeometry x="287.31481481481484" width="29.444444444444446" height="29.444444444444446" as="geometry" />
        </mxCell>
        <mxCell id="dFz9RoGbKtm6EdI5tDro-79" value="" style="ellipse;whiteSpace=wrap;html=1;aspect=fixed;" vertex="1" parent="dFz9RoGbKtm6EdI5tDro-82">
          <mxGeometry x="326.9444444444445" width="29.444444444444446" height="29.444444444444446" as="geometry" />
        </mxCell>
        <mxCell id="dFz9RoGbKtm6EdI5tDro-80" value="" style="ellipse;whiteSpace=wrap;html=1;aspect=fixed;" vertex="1" parent="dFz9RoGbKtm6EdI5tDro-82">
          <mxGeometry x="366.57407407407413" width="29.444444444444446" height="29.444444444444446" as="geometry" />
        </mxCell>
        <mxCell id="dFz9RoGbKtm6EdI5tDro-81" value="" style="ellipse;whiteSpace=wrap;html=1;aspect=fixed;" vertex="1" parent="dFz9RoGbKtm6EdI5tDro-82">
          <mxGeometry x="208.05555555555557" width="29.444444444444446" height="29.444444444444446" as="geometry" />
        </mxCell>
        <mxCell id="dFz9RoGbKtm6EdI5tDro-96" value="" style="group" vertex="1" connectable="0" parent="1">
          <mxGeometry x="870" y="1060" width="390" height="190" as="geometry" />
        </mxCell>
        <mxCell id="dFz9RoGbKtm6EdI5tDro-38" value="" style="rounded=0;whiteSpace=wrap;html=1;" vertex="1" parent="dFz9RoGbKtm6EdI5tDro-96">
          <mxGeometry width="390" height="190" as="geometry" />
        </mxCell>
        <mxCell id="dFz9RoGbKtm6EdI5tDro-35" value="&lt;h1&gt;Heading&lt;/h1&gt;&lt;p&gt;Lorem ipsum dolor sit amet, consectetur adipisicing elit, sed do eiusmod tempor incididunt ut labore et dolore magna aliqua.&lt;/p&gt;" style="text;html=1;spacing=5;spacingTop=-20;whiteSpace=wrap;overflow=hidden;rounded=0;" vertex="1" parent="dFz9RoGbKtm6EdI5tDro-96">
          <mxGeometry width="390" height="90" as="geometry" />
        </mxCell>
        <mxCell id="dFz9RoGbKtm6EdI5tDro-36" value="VIDEO" style="rounded=1;whiteSpace=wrap;html=1;" vertex="1" parent="dFz9RoGbKtm6EdI5tDro-96">
          <mxGeometry x="90" y="90" width="170" height="80" as="geometry" />
        </mxCell>
        <mxCell id="dFz9RoGbKtm6EdI5tDro-131" value="" style="endArrow=none;html=1;rounded=0;entryX=1;entryY=0.4;entryDx=0;entryDy=0;entryPerimeter=0;" edge="1" parent="dFz9RoGbKtm6EdI5tDro-96">
          <mxGeometry width="50" height="50" relative="1" as="geometry">
            <mxPoint y="44.23000000000002" as="sourcePoint" />
            <mxPoint x="390" y="44.23000000000002" as="targetPoint" />
          </mxGeometry>
        </mxCell>
        <mxCell id="dFz9RoGbKtm6EdI5tDro-98" value="" style="rounded=0;whiteSpace=wrap;html=1;" vertex="1" parent="1">
          <mxGeometry x="870" y="1260" width="390" height="860" as="geometry" />
        </mxCell>
        <mxCell id="dFz9RoGbKtm6EdI5tDro-127" value="" style="group" vertex="1" connectable="0" parent="1">
          <mxGeometry x="870" y="1260" width="395" height="840" as="geometry" />
        </mxCell>
        <mxCell id="dFz9RoGbKtm6EdI5tDro-99" value="&lt;h1&gt;Heading&lt;/h1&gt;&lt;p&gt;Lorem ipsum dolor sit amet, consectetur adipisicing elit, sed do eiusmod tempor incididunt ut labore et dolore magna aliqua.&lt;/p&gt;" style="text;html=1;spacing=5;spacingTop=-20;whiteSpace=wrap;overflow=hidden;rounded=0;" vertex="1" parent="dFz9RoGbKtm6EdI5tDro-127">
          <mxGeometry width="390" height="90" as="geometry" />
        </mxCell>
        <mxCell id="dFz9RoGbKtm6EdI5tDro-100" value="Text" style="text;html=1;align=center;verticalAlign=middle;whiteSpace=wrap;rounded=0;" vertex="1" parent="dFz9RoGbKtm6EdI5tDro-127">
          <mxGeometry y="80" width="60" height="30" as="geometry" />
        </mxCell>
        <mxCell id="dFz9RoGbKtm6EdI5tDro-101" value="" style="group" vertex="1" connectable="0" parent="dFz9RoGbKtm6EdI5tDro-127">
          <mxGeometry x="90" y="120" width="305" height="690" as="geometry" />
        </mxCell>
        <mxCell id="dFz9RoGbKtm6EdI5tDro-102" value="" style="rounded=1;whiteSpace=wrap;html=1;" vertex="1" parent="dFz9RoGbKtm6EdI5tDro-101">
          <mxGeometry width="220" height="130" as="geometry" />
        </mxCell>
        <mxCell id="dFz9RoGbKtm6EdI5tDro-103" value="Text" style="text;html=1;align=center;verticalAlign=middle;whiteSpace=wrap;rounded=0;" vertex="1" parent="dFz9RoGbKtm6EdI5tDro-101">
          <mxGeometry x="58.666666666666664" y="104" width="80.66666666666666" height="26" as="geometry" />
        </mxCell>
        <mxCell id="dFz9RoGbKtm6EdI5tDro-104" value="FIGCAPTION" style="rounded=0;whiteSpace=wrap;html=1;" vertex="1" parent="dFz9RoGbKtm6EdI5tDro-101">
          <mxGeometry x="18.333333333333332" y="91" width="183.33333333333331" height="13" as="geometry" />
        </mxCell>
        <mxCell id="dFz9RoGbKtm6EdI5tDro-105" value="IMAGEN" style="rounded=0;whiteSpace=wrap;html=1;" vertex="1" parent="dFz9RoGbKtm6EdI5tDro-101">
          <mxGeometry x="18.333333333333332" y="13" width="183.33333333333331" height="78" as="geometry" />
        </mxCell>
        <mxCell id="dFz9RoGbKtm6EdI5tDro-106" value="" style="group" vertex="1" connectable="0" parent="dFz9RoGbKtm6EdI5tDro-127">
          <mxGeometry x="90" y="260" width="220" height="130" as="geometry" />
        </mxCell>
        <mxCell id="dFz9RoGbKtm6EdI5tDro-107" value="" style="rounded=1;whiteSpace=wrap;html=1;" vertex="1" parent="dFz9RoGbKtm6EdI5tDro-106">
          <mxGeometry width="220" height="130" as="geometry" />
        </mxCell>
        <mxCell id="dFz9RoGbKtm6EdI5tDro-108" value="Text" style="text;html=1;align=center;verticalAlign=middle;whiteSpace=wrap;rounded=0;" vertex="1" parent="dFz9RoGbKtm6EdI5tDro-106">
          <mxGeometry x="58.666666666666664" y="104" width="80.66666666666666" height="26" as="geometry" />
        </mxCell>
        <mxCell id="dFz9RoGbKtm6EdI5tDro-109" value="FIGCAPTION" style="rounded=0;whiteSpace=wrap;html=1;" vertex="1" parent="dFz9RoGbKtm6EdI5tDro-106">
          <mxGeometry x="18.333333333333332" y="91" width="183.33333333333331" height="13" as="geometry" />
        </mxCell>
        <mxCell id="dFz9RoGbKtm6EdI5tDro-110" value="IMAGEN" style="rounded=0;whiteSpace=wrap;html=1;" vertex="1" parent="dFz9RoGbKtm6EdI5tDro-106">
          <mxGeometry x="18.333333333333332" y="13" width="183.33333333333331" height="78" as="geometry" />
        </mxCell>
        <mxCell id="dFz9RoGbKtm6EdI5tDro-111" value="" style="group" vertex="1" connectable="0" parent="dFz9RoGbKtm6EdI5tDro-127">
          <mxGeometry x="90" y="400" width="220" height="130" as="geometry" />
        </mxCell>
        <mxCell id="dFz9RoGbKtm6EdI5tDro-112" value="" style="rounded=1;whiteSpace=wrap;html=1;" vertex="1" parent="dFz9RoGbKtm6EdI5tDro-111">
          <mxGeometry width="220" height="130" as="geometry" />
        </mxCell>
        <mxCell id="dFz9RoGbKtm6EdI5tDro-113" value="Text" style="text;html=1;align=center;verticalAlign=middle;whiteSpace=wrap;rounded=0;" vertex="1" parent="dFz9RoGbKtm6EdI5tDro-111">
          <mxGeometry x="58.666666666666664" y="104" width="80.66666666666666" height="26" as="geometry" />
        </mxCell>
        <mxCell id="dFz9RoGbKtm6EdI5tDro-114" value="FIGCAPTION" style="rounded=0;whiteSpace=wrap;html=1;" vertex="1" parent="dFz9RoGbKtm6EdI5tDro-111">
          <mxGeometry x="18.333333333333332" y="91" width="183.33333333333331" height="13" as="geometry" />
        </mxCell>
        <mxCell id="dFz9RoGbKtm6EdI5tDro-115" value="IMAGEN" style="rounded=0;whiteSpace=wrap;html=1;" vertex="1" parent="dFz9RoGbKtm6EdI5tDro-111">
          <mxGeometry x="18.333333333333332" y="13" width="183.33333333333331" height="78" as="geometry" />
        </mxCell>
        <mxCell id="dFz9RoGbKtm6EdI5tDro-116" value="" style="group" vertex="1" connectable="0" parent="dFz9RoGbKtm6EdI5tDro-127">
          <mxGeometry x="90" y="540" width="220" height="130" as="geometry" />
        </mxCell>
        <mxCell id="dFz9RoGbKtm6EdI5tDro-117" value="" style="rounded=1;whiteSpace=wrap;html=1;" vertex="1" parent="dFz9RoGbKtm6EdI5tDro-116">
          <mxGeometry width="220" height="130" as="geometry" />
        </mxCell>
        <mxCell id="dFz9RoGbKtm6EdI5tDro-118" value="Text" style="text;html=1;align=center;verticalAlign=middle;whiteSpace=wrap;rounded=0;" vertex="1" parent="dFz9RoGbKtm6EdI5tDro-116">
          <mxGeometry x="58.666666666666664" y="104" width="80.66666666666666" height="26" as="geometry" />
        </mxCell>
        <mxCell id="dFz9RoGbKtm6EdI5tDro-119" value="FIGCAPTION" style="rounded=0;whiteSpace=wrap;html=1;" vertex="1" parent="dFz9RoGbKtm6EdI5tDro-116">
          <mxGeometry x="18.333333333333332" y="91" width="183.33333333333331" height="13" as="geometry" />
        </mxCell>
        <mxCell id="dFz9RoGbKtm6EdI5tDro-120" value="IMAGEN" style="rounded=0;whiteSpace=wrap;html=1;" vertex="1" parent="dFz9RoGbKtm6EdI5tDro-116">
          <mxGeometry x="18.333333333333332" y="13" width="183.33333333333331" height="78" as="geometry" />
        </mxCell>
        <mxCell id="dFz9RoGbKtm6EdI5tDro-121" value="Text" style="text;html=1;align=center;verticalAlign=middle;whiteSpace=wrap;rounded=0;" vertex="1" parent="dFz9RoGbKtm6EdI5tDro-127">
          <mxGeometry x="20" y="680" width="60" height="30" as="geometry" />
        </mxCell>
        <mxCell id="dFz9RoGbKtm6EdI5tDro-122" value="" style="group" vertex="1" connectable="0" parent="dFz9RoGbKtm6EdI5tDro-127">
          <mxGeometry x="90" y="710" width="220" height="130" as="geometry" />
        </mxCell>
        <mxCell id="dFz9RoGbKtm6EdI5tDro-123" value="" style="rounded=1;whiteSpace=wrap;html=1;" vertex="1" parent="dFz9RoGbKtm6EdI5tDro-122">
          <mxGeometry width="220" height="130" as="geometry" />
        </mxCell>
        <mxCell id="dFz9RoGbKtm6EdI5tDro-124" value="Text" style="text;html=1;align=center;verticalAlign=middle;whiteSpace=wrap;rounded=0;" vertex="1" parent="dFz9RoGbKtm6EdI5tDro-122">
          <mxGeometry x="58.666666666666664" y="104" width="80.66666666666666" height="26" as="geometry" />
        </mxCell>
        <mxCell id="dFz9RoGbKtm6EdI5tDro-125" value="FIGCAPTION" style="rounded=0;whiteSpace=wrap;html=1;" vertex="1" parent="dFz9RoGbKtm6EdI5tDro-122">
          <mxGeometry x="18.333333333333332" y="91" width="183.33333333333331" height="13" as="geometry" />
        </mxCell>
        <mxCell id="dFz9RoGbKtm6EdI5tDro-126" value="IMAGEN" style="rounded=0;whiteSpace=wrap;html=1;" vertex="1" parent="dFz9RoGbKtm6EdI5tDro-122">
          <mxGeometry x="18.333333333333332" y="13" width="183.33333333333331" height="78" as="geometry" />
        </mxCell>
        <mxCell id="dFz9RoGbKtm6EdI5tDro-132" value="" style="endArrow=none;html=1;rounded=0;entryX=1;entryY=0.4;entryDx=0;entryDy=0;entryPerimeter=0;" edge="1" parent="dFz9RoGbKtm6EdI5tDro-127">
          <mxGeometry width="50" height="50" relative="1" as="geometry">
            <mxPoint y="44.23000000000002" as="sourcePoint" />
            <mxPoint x="390" y="44.23000000000002" as="targetPoint" />
          </mxGeometry>
        </mxCell>
        <mxCell id="dFz9RoGbKtm6EdI5tDro-128" value="" style="rounded=0;whiteSpace=wrap;html=1;" vertex="1" parent="1">
          <mxGeometry x="870" y="2130" width="390" height="330" as="geometry" />
        </mxCell>
        <mxCell id="dFz9RoGbKtm6EdI5tDro-71" value="&lt;h1&gt;Heading&lt;/h1&gt;&lt;p&gt;Lorem ipsum dolor sit amet, consectetur adipisicing elit, sed do eiusmod tempor incididunt ut labore et dolore magna aliqua.&lt;/p&gt;" style="text;html=1;spacing=5;spacingTop=-20;whiteSpace=wrap;overflow=hidden;rounded=0;" vertex="1" parent="1">
          <mxGeometry x="872.5" y="2130" width="390" height="90" as="geometry" />
        </mxCell>
        <mxCell id="dFz9RoGbKtm6EdI5tDro-94" value="" style="group" vertex="1" connectable="0" parent="1">
          <mxGeometry x="900" y="2220" width="340" height="210" as="geometry" />
        </mxCell>
        <mxCell id="dFz9RoGbKtm6EdI5tDro-83" value="" style="rounded=1;whiteSpace=wrap;html=1;" vertex="1" parent="dFz9RoGbKtm6EdI5tDro-94">
          <mxGeometry width="340" height="210" as="geometry" />
        </mxCell>
        <mxCell id="dFz9RoGbKtm6EdI5tDro-84" value="" style="rounded=0;whiteSpace=wrap;html=1;" vertex="1" parent="dFz9RoGbKtm6EdI5tDro-94">
          <mxGeometry x="10" y="20" width="320" height="20" as="geometry" />
        </mxCell>
        <mxCell id="dFz9RoGbKtm6EdI5tDro-85" value="" style="rounded=0;whiteSpace=wrap;html=1;" vertex="1" parent="dFz9RoGbKtm6EdI5tDro-94">
          <mxGeometry x="10" y="60" width="320" height="20" as="geometry" />
        </mxCell>
        <mxCell id="dFz9RoGbKtm6EdI5tDro-86" value="" style="rounded=0;whiteSpace=wrap;html=1;" vertex="1" parent="dFz9RoGbKtm6EdI5tDro-94">
          <mxGeometry x="10" y="100" width="320" height="30" as="geometry" />
        </mxCell>
        <mxCell id="dFz9RoGbKtm6EdI5tDro-87" value="" style="rounded=0;whiteSpace=wrap;html=1;" vertex="1" parent="dFz9RoGbKtm6EdI5tDro-94">
          <mxGeometry x="10" y="150" width="320" height="20" as="geometry" />
        </mxCell>
        <mxCell id="dFz9RoGbKtm6EdI5tDro-88" value="BOTON" style="rounded=1;whiteSpace=wrap;html=1;" vertex="1" parent="dFz9RoGbKtm6EdI5tDro-94">
          <mxGeometry x="20" y="184" width="290" height="20" as="geometry" />
        </mxCell>
        <mxCell id="dFz9RoGbKtm6EdI5tDro-89" value="Text" style="text;html=1;align=center;verticalAlign=middle;whiteSpace=wrap;rounded=0;" vertex="1" parent="dFz9RoGbKtm6EdI5tDro-94">
          <mxGeometry width="60" height="30" as="geometry" />
        </mxCell>
        <mxCell id="dFz9RoGbKtm6EdI5tDro-90" value="Text" style="text;html=1;align=center;verticalAlign=middle;whiteSpace=wrap;rounded=0;" vertex="1" parent="dFz9RoGbKtm6EdI5tDro-94">
          <mxGeometry y="40" width="60" height="30" as="geometry" />
        </mxCell>
        <mxCell id="dFz9RoGbKtm6EdI5tDro-91" value="Text" style="text;html=1;align=center;verticalAlign=middle;whiteSpace=wrap;rounded=0;" vertex="1" parent="dFz9RoGbKtm6EdI5tDro-94">
          <mxGeometry y="80" width="60" height="30" as="geometry" />
        </mxCell>
        <mxCell id="dFz9RoGbKtm6EdI5tDro-92" value="Text" style="text;html=1;align=center;verticalAlign=middle;whiteSpace=wrap;rounded=0;" vertex="1" parent="dFz9RoGbKtm6EdI5tDro-94">
          <mxGeometry y="130" width="60" height="30" as="geometry" />
        </mxCell>
        <mxCell id="dFz9RoGbKtm6EdI5tDro-93" value="" style="triangle;whiteSpace=wrap;html=1;rotation=90;" vertex="1" parent="dFz9RoGbKtm6EdI5tDro-94">
          <mxGeometry x="310" y="152.5" width="10" height="15" as="geometry" />
        </mxCell>
        <mxCell id="dFz9RoGbKtm6EdI5tDro-130" value="" style="endArrow=none;html=1;rounded=0;entryX=1;entryY=0.4;entryDx=0;entryDy=0;entryPerimeter=0;" edge="1" parent="1">
          <mxGeometry width="50" height="50" relative="1" as="geometry">
            <mxPoint x="870" y="772.46" as="sourcePoint" />
            <mxPoint x="1260" y="772.46" as="targetPoint" />
          </mxGeometry>
        </mxCell>
        <mxCell id="dFz9RoGbKtm6EdI5tDro-133" value="" style="endArrow=none;html=1;rounded=0;entryX=1;entryY=0.4;entryDx=0;entryDy=0;entryPerimeter=0;" edge="1" parent="1">
          <mxGeometry width="50" height="50" relative="1" as="geometry">
            <mxPoint x="870" y="400" as="sourcePoint" />
            <mxPoint x="1260" y="400" as="targetPoint" />
          </mxGeometry>
        </mxCell>
        <mxCell id="dFz9RoGbKtm6EdI5tDro-134" value="" style="endArrow=none;html=1;rounded=0;entryX=1;entryY=0.4;entryDx=0;entryDy=0;entryPerimeter=0;" edge="1" parent="1">
          <mxGeometry width="50" height="50" relative="1" as="geometry">
            <mxPoint x="872.5" y="580" as="sourcePoint" />
            <mxPoint x="1262.5" y="580" as="targetPoint" />
          </mxGeometry>
        </mxCell>
        <mxCell id="dFz9RoGbKtm6EdI5tDro-135" value="" style="endArrow=none;html=1;rounded=0;entryX=1;entryY=0.4;entryDx=0;entryDy=0;entryPerimeter=0;" edge="1" parent="1">
          <mxGeometry width="50" height="50" relative="1" as="geometry">
            <mxPoint x="870" y="2174.23" as="sourcePoint" />
            <mxPoint x="1260" y="2174.23" as="targetPoint" />
          </mxGeometry>
        </mxCell>
      </root>
    </mxGraphModel>
  </diagram>
</mxfile>
